<svg width="26" height="26" viewBox="0 0 26 26" fill="none" xmlns="http://www.w3.org/2000/svg">
<path d="M19.9231 11.1538V1M14.8462 6.07692H25M9.30769 1H2.84615C2.35652 1 1.88695 1.1945 1.54073 1.54073C1.1945 1.88695 1 2.35652 1 2.84615V9.30769C1 9.79732 1.1945 10.2669 1.54073 10.6131C1.88695 10.9593 2.35652 11.1538 2.84615 11.1538H9.30769C9.79732 11.1538 10.2669 10.9593 10.6131 10.6131C10.9593 10.2669 11.1538 9.79732 11.1538 9.30769V2.84615C11.1538 2.35652 10.9593 1.88695 10.6131 1.54073C10.2669 1.1945 9.79732 1 9.30769 1ZM23.1538 14.8462H16.6923C16.2027 14.8462 15.7331 15.0407 15.3869 15.3869C15.0407 15.7331 14.8462 16.2027 14.8462 16.6923V23.1538C14.8462 23.6435 15.0407 24.1131 15.3869 24.4593C15.7331 24.8055 16.2027 25 16.6923 25H23.1538C23.6435 25 24.1131 24.8055 24.4593 24.4593C24.8055 24.1131 25 23.6435 25 23.1538V16.6923C25 16.2027 24.8055 15.7331 24.4593 15.3869C24.1131 15.0407 23.6435 14.8462 23.1538 14.8462ZM9.30769 14.8462H2.84615C2.35652 14.8462 1.88695 15.0407 1.54073 15.3869C1.1945 15.7331 1 16.2027 1 16.6923V23.1538C1 23.6435 1.1945 24.1131 1.54073 24.4593C1.88695 24.8055 2.35652 25 2.84615 25H9.30769C9.79732 25 10.2669 24.8055 10.6131 24.4593C10.9593 24.1131 11.1538 23.6435 11.1538 23.1538V16.6923C11.1538 16.2027 10.9593 15.7331 10.6131 15.3869C10.2669 15.0407 9.79732 14.8462 9.30769 14.8462Z" stroke="black" stroke-linecap="round" stroke-linejoin="round"/>
</svg>
