<svg width="8" height="14" viewBox="0 0 8 14" fill="none" xmlns="http://www.w3.org/2000/svg">
<path d="M-3.0598e-07 7C7.26656e-05 6.6451 0.135417 6.30477 0.376261 6.05386L5.8237 0.375663C6.0659 0.13189 6.39029 -0.00299858 6.72699 5.05335e-05C7.06369 0.00309964 7.38578 0.143842 7.62388 0.391965C7.86197 0.640087 7.99703 0.975737 7.99995 1.32662C8.00288 1.67751 7.87344 2.01555 7.63952 2.26795L3.09998 7L7.63952 11.7321C7.87344 11.9844 8.00288 12.3225 7.99995 12.6734C7.99703 13.0243 7.86197 13.3599 7.62388 13.608C7.38578 13.8562 7.06369 13.9969 6.72699 13.9999C6.39028 14.003 6.0659 13.8681 5.8237 13.6243L0.376261 7.94614C0.135417 7.69523 7.26346e-05 7.3549 -3.0598e-07 7Z" fill="black"/>
</svg>
