<svg width="20" height="22" viewBox="0 0 20 22" fill="none" xmlns="http://www.w3.org/2000/svg">
<path d="M19.0004 12.053V12.226M19.0004 12.226C18.9973 11.7994 18.8428 11.3878 18.5644 11.0645C18.286 10.7412 17.9019 10.5274 17.4804 10.461L16.2734 10.263V11.158M19.0004 12.226V14.439C19.0004 16.383 19.0004 17.355 18.6994 18.129C18.4698 18.7168 18.1191 19.2497 17.6702 19.6931C17.2212 20.1366 16.684 20.4807 16.0934 20.703C15.3094 21 14.3234 21 12.3544 21C11.3214 21 10.8044 21 10.3244 20.896C9.59254 20.7376 8.91105 20.401 8.34044 19.916C7.96744 19.599 7.65744 19.191 7.03844 18.376L4.30744 14.78C4.10377 14.5124 3.9959 14.1842 4.00116 13.848C4.00642 13.5118 4.1245 13.1871 4.33644 12.926C4.4725 12.7595 4.64179 12.6231 4.8335 12.5257C5.02521 12.4282 5.23513 12.3718 5.44987 12.3601C5.6646 12.3483 5.87943 12.3814 6.08063 12.4573C6.28184 12.5333 6.46501 12.6503 6.61844 12.801L8.00044 14.256V5.5C8.00044 5.10218 8.15848 4.72064 8.43978 4.43934C8.72109 4.15804 9.10262 4 9.50044 4C9.89827 4 10.2798 4.15804 10.5611 4.43934C10.8424 4.72064 11.0004 5.10218 11.0004 5.5V8.474H11.7274C12.7314 8.474 13.5464 9.274 13.5464 10.264M11.0004 8.473V11.157M13.5464 11.157V10.262V9.367H14.4554C15.4594 9.367 16.2734 10.169 16.2734 11.157V12.052" stroke="#656565" stroke-width="1.5" stroke-linecap="round" stroke-linejoin="round"/>
<path d="M5 7H4.176C2.68 7 1.93 7 1.466 6.56C1 6.122 1 5.415 1 4C1 2.585 1 1.879 1.465 1.44C1.93 1.001 2.68 1 4.176 1H15.823C17.321 1 18.07 1 18.535 1.44C19 1.878 19 2.585 19 4C19 5.415 19 6.121 18.535 6.56C18.07 6.999 17.32 7 15.823 7H14.5" stroke="#656565" stroke-width="1.5" stroke-linecap="round" stroke-linejoin="round"/>
</svg>
