<svg width="22" height="20" viewBox="0 0 22 20" fill="none" xmlns="http://www.w3.org/2000/svg">
<path d="M14.5 19H15V18.5V11.75C15 11.6837 15.0263 11.6201 15.0732 11.5732C15.1201 11.5263 15.1837 11.5 15.25 11.5H18.25C18.3163 11.5 18.3799 11.5263 18.4268 11.5732C18.4737 11.6201 18.5 11.6837 18.5 11.75V18.5V19H19H20.75C20.8163 19 20.8799 19.0263 20.9268 19.0732C20.9737 19.1201 21 19.1837 21 19.25C21 19.3163 20.9737 19.3799 20.9268 19.4268C20.8799 19.4737 20.8163 19.5 20.75 19.5H0.75C0.683696 19.5 0.620107 19.4737 0.573223 19.4268C0.52634 19.3799 0.5 19.3163 0.5 19.25C0.5 19.1837 0.52634 19.1201 0.573223 19.0732C0.620107 19.0263 0.683696 19 0.75 19H2.5H3V18.5V6.75C3 6.6837 3.02634 6.62011 3.07322 6.57322C3.12011 6.52634 3.1837 6.5 3.25 6.5H6.25C6.3163 6.5 6.37989 6.52634 6.42678 6.57322C6.47366 6.62011 6.5 6.6837 6.5 6.75V18.5V19H7H8.5H9V18.5V2.25C9 1.50849 9.00303 1.0768 9.04358 0.770362C9.05679 0.673007 9.07106 0.614137 9.08116 0.581151C9.11416 0.571054 9.17306 0.556775 9.2705 0.543559C9.57581 0.503041 10.0083 0.5 10.75 0.5C11.4915 0.5 11.9232 0.503031 12.2296 0.543571C12.327 0.556784 12.3859 0.571062 12.4188 0.581156C12.4289 0.614153 12.4432 0.673045 12.4564 0.770456C12.497 1.07576 12.5 1.50828 12.5 2.25V18.5V19H13H14.5Z" fill="white" stroke="#7553FF"/>
</svg>
