<svg width="22" height="24" viewBox="0 0 22 24" fill="none" xmlns="http://www.w3.org/2000/svg">
<path d="M14.4286 0.857422V11.1431L20.5829 18.9774C20.8827 19.3568 21.0694 19.813 21.1217 20.2937C21.174 20.7743 21.0897 21.26 20.8785 21.695C20.6673 22.1299 20.3377 22.4965 19.9276 22.7526C19.5175 23.0088 19.0435 23.1441 18.56 23.1431H3.44003C2.95651 23.1441 2.48252 23.0088 2.07243 22.7526C1.66235 22.4965 1.33279 22.1299 1.12158 21.695C0.910376 21.26 0.826077 20.7743 0.87836 20.2937C0.930643 19.813 1.11739 19.3568 1.41717 18.9774L7.57145 11.1431V0.857422M5.00003 0.857422H17" stroke="#656565" stroke-width="1.4" stroke-linecap="round" stroke-linejoin="round"/>
</svg>
