<svg width="22" height="22" viewBox="0 0 22 22" fill="none" xmlns="http://www.w3.org/2000/svg">
<path d="M20.4567 21.0985C20.2875 21.1105 20.1125 21.0526 19.9632 20.9041L15.8099 16.7741C14.2268 18.1069 12.1734 18.9085 9.95438 18.9085C4.96127 18.9085 0.9 14.8708 0.9 9.90424C0.9 4.93773 4.96127 0.9 9.95438 0.9C14.9474 0.9 19.0087 4.93765 19.0088 9.90409L20.4567 21.0985ZM20.4567 21.0985C20.6232 21.0866 20.777 21.0075 20.8914 20.8946M20.4567 21.0985L20.8914 20.8946M20.8914 20.8946C21.0058 20.7816 21.0861 20.6294 21.0984 20.4646M20.8914 20.8946L21.0984 20.4646M21.0984 20.4646C21.1108 20.2971 21.052 20.1245 20.9025 19.9788M21.0984 20.4646L20.9025 19.9788M20.9025 19.9788C20.9024 19.9787 20.9022 19.9786 20.9021 19.9785M20.9025 19.9788L20.9021 19.9785M20.9021 19.9785L16.7518 15.8404C18.2083 14.2038 19.012 12.092 19.0088 9.90424L20.9021 19.9785ZM2.2238 9.90424C2.2238 5.66458 5.69941 2.21862 9.95326 2.21862C14.2183 2.21862 17.6827 5.66448 17.6827 9.90424C17.6827 14.144 14.2183 17.5899 9.95326 17.5899C5.69941 17.5899 2.2238 14.1439 2.2238 9.90424Z" fill="#7553FF" stroke="#7553FF" stroke-width="0.2"/>
</svg>
