<svg width="18" height="23" viewBox="0 0 18 23" fill="none" xmlns="http://www.w3.org/2000/svg">
<path d="M11.1 19.2492C10.875 18.5742 10.35 18.1242 9.75 17.8992V15.4992C13.5 15.1242 16.5 11.8992 16.5 8.07422C16.5 4.24922 13.125 0.574219 9 0.574219C4.875 0.574219 1.5 3.87422 1.5 7.99922C1.5 12.1242 4.425 15.1242 8.25 15.4992V17.8992C7.575 18.1242 7.125 18.6492 6.9 19.2492H0V20.7492H6.9C7.2 21.6492 8.025 22.2492 9 22.2492C9.975 22.2492 10.8 21.6492 11.1 20.7492H18V19.2492H11.1ZM3 7.99922C3 4.69922 5.7 1.99922 9 1.99922C12.3 1.99922 15 4.69922 15 7.99922C15 11.2992 12.3 13.9992 9 13.9992C5.7 13.9992 3 11.2992 3 7.99922ZM9 20.7492C8.55 20.7492 8.25 20.3742 8.25 19.9992C8.25 19.6242 8.55 19.2492 9 19.2492C9.45 19.2492 9.75 19.6242 9.75 19.9992C9.75 20.3742 9.375 20.7492 9 20.7492ZM11.475 11.5242L8.25 8.29922V3.49922H9.75V7.69922L12.525 10.4742L11.475 11.5242Z" fill="#656565"/>
</svg>
