<svg width="17" height="18" viewBox="0 0 17 18" fill="none" xmlns="http://www.w3.org/2000/svg">
<path fill-rule="evenodd" clip-rule="evenodd" d="M7.92756 0.428152C8.13287 0.423381 8.33701 0.459531 8.52733 0.534361C8.71764 0.609191 8.89008 0.721108 9.03395 0.863177L15.8556 7.59696V7.59696C16.1309 7.86847 16.2857 8.23407 16.2861 8.61478V15.9737C16.2861 16.3593 16.1281 16.7292 15.8468 17.0019C15.5655 17.2745 15.184 17.4277 14.7861 17.4277H11.7861C11.3883 17.4277 11.0068 17.2745 10.7255 17.0019C10.4442 16.7292 10.2861 16.3593 10.2861 15.9737V12.581C10.2861 12.4524 10.2335 12.3291 10.1397 12.2383C10.0459 12.1474 9.91874 12.0963 9.78613 12.0963H6.78613C6.65352 12.0963 6.52635 12.1474 6.43258 12.2383C6.33881 12.3291 6.28613 12.4524 6.28613 12.581V15.9737C6.28613 16.3593 6.1281 16.7292 5.84679 17.0019C5.56549 17.2745 5.18396 17.4277 4.78613 17.4277H1.78613C1.38831 17.4277 1.00678 17.2745 0.725473 17.0019C0.444168 16.7292 0.286133 16.3593 0.286133 15.9737V8.5892V8.5892C0.28612 8.23201 0.421742 7.88728 0.667133 7.62082L6.84395 0.914068C6.98063 0.765479 7.14733 0.645682 7.33373 0.562098C7.52012 0.478514 7.72224 0.432923 7.92756 0.428152ZM8.15145 1.43263C8.08801 1.40769 8.01996 1.39564 7.95152 1.39723C7.88309 1.39882 7.81571 1.41401 7.75358 1.44188C7.69145 1.46974 7.63588 1.50967 7.59032 1.5592L1.41313 8.26635C1.33133 8.35518 1.28613 8.47008 1.28613 8.58915V15.9737C1.28613 16.1022 1.33881 16.2255 1.43258 16.3164C1.52635 16.4073 1.65352 16.4584 1.78613 16.4584H4.78613C4.91874 16.4584 5.04592 16.4073 5.13969 16.3164C5.23345 16.2255 5.28613 16.1022 5.28613 15.9737V12.581C5.28613 12.1953 5.44417 11.8255 5.72547 11.5528C6.00678 11.2801 6.38831 11.1269 6.78613 11.1269H9.78613C10.184 11.1269 10.5655 11.2801 10.8468 11.5528C11.1281 11.8255 11.2861 12.1953 11.2861 12.581V15.9737C11.2861 16.1022 11.3388 16.2255 11.4326 16.3164C11.5263 16.4073 11.6535 16.4584 11.7861 16.4584H14.7861C14.9187 16.4584 15.0459 16.4073 15.1397 16.3164C15.2335 16.2255 15.2861 16.1023 15.2861 15.9737V8.61591C15.286 8.48897 15.2345 8.36715 15.1426 8.27664L8.32038 1.5423C8.27243 1.49494 8.21488 1.45757 8.15145 1.43263Z" fill="#656565"/>
</svg>
