<svg width="24" height="24" viewBox="0 0 24 24" fill="none" xmlns="http://www.w3.org/2000/svg">
<path d="M16.4198 22.5346V19.7647H13.4084C12.8425 19.7647 12.3608 19.5426 11.9634 19.0984C11.5659 18.6541 11.3672 18.1162 11.3672 17.4847V5.64706H7.57768V8.41694C7.57768 8.83106 7.45179 9.17882 7.2 9.46024C6.94821 9.74165 6.63663 9.88235 6.26526 9.88235H1.31116C0.940632 9.88235 0.629474 9.74165 0.377684 9.46024C0.125895 9.17882 0 8.83059 0 8.41553V1.46824C0 1.05318 0.125895 0.704941 0.377684 0.423529C0.629474 0.142118 0.941053 0.00141166 1.31242 0.00141166H6.26779C6.63832 0.00141166 6.94947 0.142118 7.20126 0.423529C7.45305 0.704941 7.57895 1.05318 7.57895 1.46824V4.23529H16.4211V1.46682C16.4211 1.05176 16.5469 0.703529 16.7987 0.422118C17.0505 0.140706 17.3621 0 17.7335 0H22.6876C23.0589 0 23.3705 0.140706 23.6223 0.422118C23.8741 0.703529 24 1.05176 24 1.46682V8.41694C24 8.83106 23.8741 9.17882 23.6223 9.46024C23.3705 9.74165 23.0589 9.88235 22.6876 9.88235H17.7335C17.3621 9.88235 17.0505 9.74165 16.7987 9.46024C16.5469 9.17882 16.4211 8.83059 16.4211 8.41553V5.64706H12.6316V17.4847C12.6316 17.7379 12.7044 17.9459 12.8501 18.1087C12.9958 18.2715 13.1823 18.3529 13.4097 18.3529H16.4198V15.5845C16.4198 15.1694 16.5457 14.8212 16.7975 14.5398C17.0493 14.2584 17.3608 14.1176 17.7322 14.1176H22.6863C23.0577 14.1176 23.3693 14.2584 23.6211 14.5398C23.8728 14.8212 23.9987 15.1694 23.9987 15.5845V22.5332C23.9987 22.9482 23.8728 23.2965 23.6211 23.5779C23.3693 23.8593 23.0577 24 22.6863 24H17.7335C17.3621 24 17.0505 23.8593 16.7987 23.5779C16.5469 23.2965 16.4211 22.9482 16.4211 22.5332M17.6829 8.47059H22.7356V1.41176H17.6829V8.47059ZM17.6829 22.5882H22.7356V15.5294H17.6829V22.5882ZM1.26189 8.47059H6.31453V1.41176H1.26189V8.47059Z" fill="black"/>
</svg>
